<svg width="303.29" height="85" viewBox="0 0 303.29 85" xmlns="http://www.w3.org/2000/svg"><path d="M32.479 38.118L6.892 10.265v23.84q0 1.227.968 1.888.968.661 3.375.756v.991H1.463v-.991q.85-.095 1.582-.166.732-.07 1.25-.33.52-.26.85-.755.331-.496.425-1.393 0-.047.048-.142V8.896q-.944-1.038-1.889-1.864-.944-.826-2.218-.874v-.991h7.034l23.367 25.634V9.18q0-.897-.236-1.44-.236-.543-.755-.874-.52-.33-1.298-.472-.78-.141-1.865-.236v-.991h9.725v.991q-2.455.378-3.376 1.086-.92.708-.92 1.888v28.986h-.708zm36.585-16.334q0-4.39-1.18-7.435t-2.88-4.957q-1.699-1.912-3.658-2.785-1.96-.874-3.517-.874-2.124 0-4.202.968-2.077.968-3.705 2.974-1.629 2.007-2.62 5.122-.992 3.116-.992 7.412 0 3.068.732 5.83t2.124 4.839q1.393 2.077 3.423 3.304 2.03 1.228 4.673 1.228 3.022 0 5.264-1.464 2.242-1.463 3.682-3.73 1.44-2.265 2.148-5.027.708-2.761.708-5.405zM57.498 4.742q2.975 0 5.925 1.015 2.95 1.015 5.334 3.116 2.384 2.1 3.871 5.334 1.487 3.234 1.487 7.624 0 1.37-.306 3.116-.307 1.746-1.039 3.588-.732 1.84-1.96 3.61-1.226 1.771-3.091 3.164-1.865 1.392-4.461 2.242-2.597.85-5.996.85-3.162 0-5.57-.803-2.408-.802-4.201-2.148-1.794-1.345-2.975-3.068-1.18-1.723-1.911-3.54-.732-1.818-1.039-3.588-.307-1.77-.307-3.234 0-3.54.874-6.208.873-2.667 2.29-4.579 1.415-1.912 3.21-3.163 1.793-1.25 3.587-2.006 1.794-.755 3.446-1.039 1.652-.283 2.832-.283zm18.883 1.416v-.991h11.377v.991q-1.51.048-2.549.236-1.038.19-1.038 1.133 0 .142.283.85l8.12 22.518h.094l5.854-16.664-1.511-4.249q-.33-.944-.779-1.794-.448-.85-1.015-1.274-.66-.52-1.487-.614-.826-.094-1.629-.142v-.991h13.455v.991q-.661.048-1.393.095t-1.322.283q-.59.236-.968.684-.377.449-.377 1.299 0 .236.189.85.188.613.424 1.345t.449 1.369q.212.637.307.873l6.137 17.608h.094l3.069-10.15q.283-.99.802-2.595.52-1.606 1.039-3.329.519-1.723.897-3.351.377-1.629.377-2.668 0-.802-.354-1.25-.354-.449-.92-.661-.567-.213-1.251-.26-.685-.047-1.299-.142v-.991h8.545v.991q-1.086.19-1.794.944-.708.756-1.18 1.77-.472 1.016-.779 2.125-.307 1.11-.59 2.006l-7.884 25.398h-.85l-7.789-22.66h-.094l-7.837 22.66h-.802L79.828 10.454q-.425-1.086-.685-1.983-.26-.896-.826-1.51-.661-.661-1.936-.803zM2.313 80.22v-9.866h.944q.236 1.888.85 3.611.614 1.723 1.676 3.045 1.062 1.322 2.667 2.1 1.605.78 3.824.78 2.36 0 3.847-.732t2.313-1.794q.827-1.062 1.133-2.242.307-1.18.307-2.078 0-1.793-.731-2.88-.732-1.085-1.889-1.746-1.156-.66-2.549-1.086-1.393-.424-2.714-.944-2.03-.66-3.635-1.392-1.605-.732-2.738-1.794t-1.723-2.597q-.59-1.534-.59-3.894 0-2.172.802-3.918.803-1.747 2.172-2.974 1.369-1.228 3.21-1.912 1.84-.685 3.918-.685 1.983 0 4.036.661 2.054.66 3.564 2.03l1.416-1.227h.661v9.677h-.85q-.235-.897-.519-1.912-.283-1.015-.637-2.053-.354-1.039-.802-1.96-.449-.92-1.063-1.628-1.038-1.18-2.313-1.888-1.274-.709-2.88-.709-3.351 0-5.121 2.007-1.77 2.006-1.77 5.263 0 1.558.542 2.55.543.99 1.44 1.652.897.66 2.054 1.086 1.156.424 2.383.802 1.936.567 3.8 1.322 1.865.755 3.352 1.888 1.487 1.133 2.384 2.785.897 1.653.897 4.013 0 2.502-.897 4.272-.897 1.77-2.454 2.88-1.558 1.11-3.588 1.629-2.03.519-4.296.519-2.172 0-4.225-.614-2.054-.613-3.847-1.794L2.88 80.22h-.567zm52.683 0h-25.68v-.991q1.7 0 2.69-.425.992-.425.992-2.219V51.282q0-.897-.307-1.416-.307-.52-.826-.803-.52-.283-1.204-.354-.684-.07-1.487-.07v-.992H53.25l2.313 7.6-.991.236q-.992-1.557-2.125-2.974-1.794-2.313-3.635-3.092-1.84-.779-3.87-.779h-7.176v14.493h2.596q1.794 0 3.069-.189 1.274-.189 2.171-.802.897-.614 1.487-1.794.59-1.18 1.015-3.163h.756v13.596h-.756q-.189-1.983-.684-3.234-.496-1.251-1.346-1.936-.85-.684-2.124-.944-1.275-.26-2.974-.26h-3.21v12.51q0 .803.26 1.251.26.449.708.685.448.236 1.038.307.59.07 1.251.07h5.287q.85 0 1.558-.094.708-.094 1.346-.354.637-.26 1.25-.684.614-.425 1.322-1.133 1.228-1.228 2.29-2.573 1.062-1.346 2.006-2.856l.803.236-1.889 8.45zm34.792 0h-27.05v-.991q1.936 0 2.833-.425.897-.425.897-2.219V51.282q0-.897-.307-1.416-.307-.52-.803-.803-.495-.283-1.156-.354-.661-.07-1.37-.07v-.992H75.72v.991q-2.407 0-3.446.685-1.038.684-1.038 2.431v23.745q0 1.37.26 2.125.26.755.896 1.109.638.354 1.77.425 1.134.07 2.833.07 1.464 0 2.927-.047t2.927-.283q1.888-.33 3.021-1.345t2.219-2.526q1.794-2.455 3.399-5.334h.991L89.79 80.22zm34.084 0h-27.05v-.991q1.936 0 2.833-.425.897-.425.897-2.219V51.282q0-.897-.307-1.416-.307-.52-.803-.803-.496-.283-1.156-.354-.661-.07-1.37-.07v-.992h12.888v.991q-2.407 0-3.446.685-1.039.684-1.039 2.431v23.745q0 1.37.26 2.125.26.755.897 1.109t1.77.425q1.133.07 2.833.07 1.463 0 2.927-.047 1.463-.047 2.926-.283 1.889-.33 3.022-1.345 1.133-1.015 2.218-2.526 1.794-2.455 3.4-5.334h.99l-2.69 10.527zm20.535 0h-13.454v-.991q1.983 0 3.14-.425 1.156-.425 1.156-2.219V51.282q0-1.794-1.157-2.219-1.156-.425-3.139-.425v-.991h13.454v.991q-2.03 0-3.21.425-1.18.425-1.18 2.219v25.303q0 1.794 1.18 2.219 1.18.425 3.21.425v.991zm34.934.378l-25.587-27.853v23.84q0 1.227.968 1.888.968.661 3.375.756v.991h-9.772v-.991q.85-.095 1.582-.166.731-.07 1.25-.33.52-.26.85-.755.33-.496.425-1.393 0-.047.048-.142V51.376q-.945-1.038-1.889-1.864-.944-.826-2.218-.874v-.991h7.033l23.368 25.634V51.66q0-.897-.236-1.44-.236-.543-.755-.874-.52-.33-1.299-.472-.778-.141-1.864-.236v-.991h9.724v.991q-2.454.378-3.375 1.086-.92.708-.92 1.888v28.986h-.708zm38.662-32.385l.284 9.725h-.992q-.708-1.888-1.676-3.658-.967-1.77-2.266-3.116-1.298-1.345-3.045-2.148-1.746-.803-4.012-.803-1.794 0-3.99.897-2.194.897-4.106 2.856-1.912 1.96-3.187 5.099-1.274 3.14-1.274 7.577 0 4.484 1.11 7.435 1.108 2.95 2.784 4.697 1.676 1.747 3.659 2.431 1.983.685 3.776.685 3.683 0 5.807-1.96 2.124-1.959 2.124-5.594v-3.493q0-.85-.165-1.369-.165-.52-.614-.826-.448-.307-1.227-.449-.779-.141-2.054-.236v-.991h12.274v.991q-1.085.095-1.746.26t-1.039.472q-.378.307-.52.755-.14.449-.14 1.11v8.308q-3.022 1.7-6.256 2.856-3.233 1.157-6.774 1.157-2.927 0-5.83-.944t-5.24-2.927q-2.337-1.983-3.777-5.051-1.44-3.069-1.44-7.317 0-4.438 1.464-7.695 1.463-3.257 3.847-5.429t5.358-3.234q2.974-1.062 6.043-1.062 2.832 0 5.476.685 2.644.684 5.051 2.336l1.605-2.03h.708z" fill="#dbcd9e"/></svg>