<svg xmlns="http://www.w3.org/2000/svg" width="379.455" height="60"><path d="M369.317 19.834l2.306-9.9h-15.086l-8.84 9.9h-7.015c.577-2.258 1.922-7.591 1.922-7.639a8.317 8.317 0 00-3.507-9.177c-5.429-3.555-17.489-3.123-23.11 1.826-.288.24-2.306 2.114-5.045 4.708l1.825-6.971a.512.512 0 00-.288-.673c-.048 0-.144-.048-.192 0h-25.9a2.349 2.349 0 00-1.105.384l-2.303 1.879c-1.489-1.393-3.892-2.018-7.5-2.018h-21.616l-3.171 2.546a11.885 11.885 0 00-6.63-4.036 25.239 25.239 0 00-14.125.769 26.685 26.685 0 00-3.363 1.537 27.783 27.783 0 00-7.112 4.612 5.956 5.956 0 00-1.105-2.45c-1.393-2.066-4.228-2.979-8.6-2.979h-18.978l-4.372 3.508a8.392 8.392 0 00-2.691-2.835c-5.429-3.555-16-3.7-21.957 1.345a577.686 577.686 0 00-6.1 5.285c-3.219 2.835-6.39 5.717-9.417 8.744a17.247 17.247 0 00-2.691 2.931 8.351 8.351 0 00-1.153 3.7 13.152 13.152 0 002.162 8.072 15.313 15.313 0 001.441 2.018l-8.072 6.534-1.73 6.246c-1.249 4.9 1.3 8.84 6.726 10.57a20.113 20.113 0 006.054.913c5 0 12.828-3.171 19.362-7.207l-2.018 7.639h9.994l15.182-11.1 1.057-3.988a28.9 28.9 0 009.513-3.363l-1.778 6.486c-1.249 5.045 1.73 9.225 7.735 10.906a23.4 23.4 0 005.766.721 26.153 26.153 0 008.408-1.393 46.249 46.249 0 008.168-4.228l-1.537 5.625h13.6l3.267-1.922 1.153 1.922h13.6l10.042-7.591c-1.249 4.8-2.162 8.312-2.114 8.312h12.011c.288 0 7.159-6.054 10.762-9.225-.1 3.8 2.4 6.438 7.015 7.831a19.048 19.048 0 006.15.865c7.976 0 23.35-7.5 28.827-14.462l.1-.144a12.582 12.582 0 002.45-3.988 16.75 16.75 0 00.769-2.354l3.8.1-2.594 12.54 20.035.048 6.39-4.757 1.537-4.036 9.994-7.591 3.83-14.948h-10.138zM141.532 12.915l2.787-10.237c.192-.144 0-.48-.288-.48h-27a2.133 2.133 0 00-1.057.48l-1.537 1.537c-.288.192-.384.673-.673 0-2.309-2.783-6.056-3.837-10.813-3.743-1.826 0-7.928-.1-13.4 3.748a17.667 17.667 0 00-4.228 4.228c-.192.288-.384.48-.384-.1.1-2.4-2.114-8.024-13.6-7.831-4.71-.19-14.079 1.061-17.442 8.122-.1.288-.192.288-.192 0 .384-4.8-2.5-6.534-8.888-6.534h-19.84a1.526 1.526 0 00-.961.384L12.049 15.366a1.831 1.831 0 00-.48.961L.037 58.655a.376.376 0 00.24.529c.048 0 .1.048.144.048h11a3.189 3.189 0 00.961-.288l13.023-9.566a1.728 1.728 0 00.577-.865l.961-3.459c.1-.288.288-.577.673-.48a23.183 23.183 0 006.967-1.057c.288-.1.384.1.288.48l-1.154 4.52c-2.882 10.907 12.636 10.715 12.636 10.715 9.369 0 14.558-.961 16.768-5.573.1-.288.1-.288.192 0 0 0-.288 2.21 3.651 3.94 3.363 1.441 12.252 3.171 21.044-.673.673-.288 13.117-7.255 13.117-7.255.288-.192.384 0 .384.288l-2.4 8.792a.391.391 0 00.24.529c.048 0 .1.048.144.048h10.138a1.732 1.732 0 00.961-.288l13.785-9.562a1.728 1.728 0 00.577-.865l7.831-28.827a2.726 2.726 0 01.577-.865l7.543-5.189a1.512 1.512 0 00.627-.817z"/><path data-name="+" d="M376.524 22.428h-10.378l2.546-10.282h-10.618l-2.546 10.282h-10.811l-2.45 10.282h10.714l-2.594 10.474h10.618l2.594-10.474h10.426z" fill="#f3d010"/><path d="M328.575 18.584h10.666c.625-2.258 1.922-6.871 1.922-6.871 2.5-10.618-14.51-12.54-23.783-5.765a16.937 16.937 0 00-5.429 7.015c-3.988 12.924 14.75 17.777 10.378 25.416-2.162 3.363-7.5 2.643-6.39-1.489l.961-3.748h-10.618l-1.826 6.871c-3.267 13.309 24.792 12.684 29.836-.48 6.534-16.528-14.894-18.978-10.378-26.665 2.162-3.267 7.015-2.018 5.91 2.162zM286.822 3.979l-2.018 7.783h6.967l-9.513 35.317h10.33l9.513-35.314h6.967l2.018-7.786h-24.264zM275.484 3.642H254.92l-12.011 44.346h10.618l4.853-18.017h3.6c2.4 0 3.748.384 2.787 3.748l-3.892 14.27h11.387l2.883-10.762c1.826-6.534 3.6-9.9-1.345-11 5.766-1.345 6.534-5.765 7.88-11 1.78-6.396 3.942-11.585-6.196-11.585zm-4.757 11.531c-.24 1.249-.865 3.363-.865 3.363-.961 3.507-2.4 3.748-4.9 3.748h-4.372l2.883-10.618h4.372c2.4 0 3.6.432 2.883 3.507zM220.616 11.57l-7.687 28.4c-3.123 12.924 25.416 13.309 29.308 0l7.687-28.4c3.027-12.828-25.369-13.213-29.308 0zm17.489 2.979l-6.2 22.63c-1.393 5.045-8.6 5.045-7.207 0l6.2-22.63c1.345-5.045 8.552-5.045 7.206 0zM209.468 3.979h-17.969L179.728 47.46h10.474l3.555-13.4h7.5c9.945 0 12.06-5.045 13.645-11.291.384-1.249 1.73-6.15 2.114-7.5 1.629-6.245 2.254-11.29-7.548-11.29zm-3.075 11.243c.144-.384-2.114 7.976-2.114 7.639-.961 3.075-2.354 3.459-4.66 3.459h-3.94l3.94-14.51h3.94c2.306-.048 3.651.337 2.834 3.412z" fill="#fff"/><path data-name="S" d="M173.194 18.68h10.618c.625-2.258 1.826-6.871 1.826-6.871 2.5-10.618-14.51-12.492-23.735-5.717a16.059 16.059 0 00-5.333 7.015c-3.988 12.876 14.75 17.777 10.378 25.368-2.162 3.363-7.5 2.643-6.39-1.489l.961-3.748h-10.618l-1.826 6.871c-3.267 13.261 24.744 12.588 29.74-.48 6.534-16.48-14.894-18.978-10.378-26.617 2.162-3.267 7.015-2.018 5.814 2.114z" fill="#fff"/><g fill="#fff"><path data-name="T" d="M115.587 11.762h7.015l-9.561 35.506h10.426l9.561-35.506h6.967l2.018-7.831h-24.312z"/><path data-name="S" d="M90.602 5.992a15.21 15.21 0 00-5.285 6.871c-3.988 12.684 14.654 18.113 10.378 25.608-2.21 3.267-7.735 2.594-6.678-1.441l.961-3.651H79.553l-1.826 6.678c-3.171 13.02 24.311 12.444 29.116-.48 6.294-16.191-14.366-19.314-9.945-26.906 2.114-3.267 6.774-1.922 5.717 2.114l-.913 3.555h10.522c.577-2.114 1.826-6.726 1.826-6.726C116.452 1.336 99.684-.49 90.602 5.992z"/><path data-name="O" d="M54.521 11.762l-7.639 28.347c-3.075 12.54 24.5 12.828 28.347 0l7.639-28.347c3.072-12.54-24.503-12.828-28.347 0zm16.96 2.883l-6.15 22.582c-1.345 4.9-8.312 4.9-7.015 0l6.15-22.582c1.249-4.9 8.264-4.9 7.015 0z"/><path data-name="P" d="M50.004 18.824c.384-1.153.673-2.4 1.057-3.748 1.73-6.29 2.307-11.29-7.543-11.29H25.597L13.826 47.267h10.426l3.651-13.309h7.5c9.849 0 11.963-5 13.6-11.387.377-1.248.713-2.594 1.001-3.747zm-9.465-3.7c-.048.1-.529 2.018-1.057 3.8-.577 2.114-1.153 4.228-1.057 3.844-.865 3.171-2.306 3.459-4.612 3.459h-3.844l3.94-14.462h3.844c2.306 0 3.555.288 2.787 3.363z"/></g></svg>
